<?xml version="1.0" standalone="no"?>
<!DOCTYPE svg PUBLIC "-//W3C//DTD SVG 20010904//EN"
 "http://www.w3.org/TR/2001/REC-SVG-20010904/DTD/svg10.dtd">
<svg version="1.0" xmlns="http://www.w3.org/2000/svg"
 width="260.000000pt" height="260.000000pt" viewBox="0 0 260.000000 260.000000"
 preserveAspectRatio="xMidYMid meet">
<metadata>
Created by potrace 1.14, written by Peter Selinger 2001-2017
</metadata>
<g transform="translate(0.000000,260.000000) scale(0.100000,-0.100000)"
fill="#000000" stroke="none">
<path d="M0 1298 l0 -1298 1088 0 c599 0 1184 3 1300 7 l212 6 0 1295 0 1294
-1300 -4 -1300 -3 0 -1297z m1555 940 c16 -7 29 -25 36 -49 10 -33 8 -43 -16
-95 -15 -33 -50 -122 -77 -199 -87 -248 -106 -299 -123 -333 -20 -38 -15 -48
13 -33 27 14 336 15 363 1 40 -22 49 -61 49 -207 0 -119 -3 -142 -20 -170 -27
-46 -61 -64 -127 -70 -49 -4 -62 -2 -85 17 -17 13 -28 31 -28 45 0 32 37 65
71 65 57 0 59 4 59 106 l0 94 -114 0 c-63 0 -127 -5 -143 -11 -15 -6 -46 -14
-68 -18 -28 -4 -43 -14 -52 -31 -16 -31 -17 -241 -2 -342 13 -89 84 -240 146
-311 23 -27 54 -73 69 -103 20 -40 32 -54 48 -54 11 0 43 -7 70 -15 27 -8 75
-15 107 -15 l57 0 16 47 c10 28 16 80 16 128 0 62 6 99 26 155 14 40 29 102
33 138 6 50 13 70 31 84 30 24 46 23 77 -8 24 -24 25 -30 20 -97 -3 -40 -15
-99 -27 -132 -15 -40 -25 -96 -30 -170 -10 -156 -38 -228 -102 -261 -36 -19
-178 -18 -251 1 -32 8 -73 15 -90 15 -49 0 -75 25 -111 104 -21 46 -45 80 -67
97 -19 15 -40 43 -48 65 -7 21 -33 73 -57 115 -37 65 -45 92 -59 180 -8 56
-15 153 -15 216 0 62 -2 113 -5 113 -3 0 -28 -11 -55 -25 -27 -14 -74 -34
-103 -45 -53 -20 -55 -22 -76 -83 -12 -34 -31 -100 -42 -147 -11 -47 -42 -135
-69 -197 -46 -104 -50 -118 -50 -193 0 -89 -17 -110 -22 -27 l-3 52 -12 -40
c-7 -22 -13 -92 -13 -158 0 -135 -13 -182 -54 -193 -31 -7 -76 18 -77 44 0 9
0 80 1 157 1 162 11 206 77 345 74 155 83 176 83 193 0 8 7 43 16 77 8 34 13
64 11 67 -3 3 -26 -7 -51 -22 -82 -48 -253 -105 -315 -105 -19 0 -43 7 -53 17
-22 20 -24 66 -3 87 15 14 75 36 102 36 36 0 401 168 420 193 5 7 29 59 52
117 24 58 54 124 67 147 13 23 24 47 24 54 0 7 14 30 30 53 104 140 134 184
160 234 66 124 200 268 277 297 48 17 56 18 88 3z"/>
<path d="M1347 1938 c-19 -24 -47 -68 -61 -98 -15 -30 -58 -95 -96 -145 -38
-49 -72 -101 -75 -114 -4 -14 -15 -37 -25 -51 -16 -23 -60 -122 -60 -135 0
-12 180 87 188 102 5 10 13 36 17 58 3 21 15 56 26 77 11 21 28 64 39 96 10
31 34 100 54 152 19 52 34 96 32 98 -2 2 -20 -16 -39 -40z"/>
</g>
</svg>
